{
	"asset":{
		"version":"2.0",
		"generator":"Created using the official Cinema 4D glTF Exporter. Previous Build: 1.000x279138."
	},
	"nodes":[{
		"name":"RetopoGroup1",
		"translation":[0.0,
		0.0,
		0.0],
		"rotation":[0.0,
		0.0,
		0.0,
		-1.0],
		"scale":[1.0,
		1.0,
		-1.0],
		"mesh":0
	}],
	"scenes":[{
		"nodes":[0]
	}],
	"meshes":[{
		"primitives":[{
			"attributes":{
				"POSITION":1,
				"NORMAL":2,
				"TEXCOORD_0":3
			},
			"indices":0,
			"material":0
		}]
	}],
	"accessors":[{
		"bufferView":0,
		"type":"SCALAR",
		"componentType":5123,
		"count":3984,
		"byteOffset":0,
		"min":[0],
		"max":[1187]
	},
	{
		"bufferView":1,
		"type":"VEC3",
		"componentType":5126,
		"count":1188,
		"byteOffset":0,
		"min":[-1.7753050327301026,
		0.003220000071451068,
		-0.7255139946937561],
		"max":[1.7753050327301026,
		5.465970039367676,
		0.7416890263557434]
	},
	{
		"bufferView":1,
		"type":"VEC3",
		"componentType":5126,
		"count":1188,
		"byteOffset":12,
		"min":[-1.0,
		-0.999998927116394,
		-1.0],
		"max":[1.0,
		1.0,
		1.0]
	},
	{
		"bufferView":1,
		"type":"VEC2",
		"componentType":5126,
		"count":1188,
		"byteOffset":24,
		"min":[0.024476999416947366,
		0.023259997367858888],
		"max":[0.9915630221366882,
		0.9749150276184082]
	}],
	"bufferViews":[{
		"buffer":0,
		"byteOffset":0,
		"byteLength":7968,
		"target":34963
	},
	{
		"buffer":0,
		"byteOffset":7968,
		"byteLength":38016,
		"target":34962,
		"byteStride":32
	}],
	"buffers":[{
		"uri":"data:application/octet-stream;base64,",
		"byteLength":45984
	}],
	"images":[{
		"uri":"data:image/jpeg;base64,"
	}],
	"samplers":[{
		"magFilter":9729,
		"minFilter":9729,
		"wrapS":10497,
		"wrapT":10497
	}],
	"textures":[{
		"sampler":0,
		"source":0
	}],
	"materials":[{
		"pbrMetallicRoughness":{
			"baseColorTexture":{
				"index":0
			},
			"baseColorFactor":[1.0,
			1.0,
			1.0,
			1.0],
			"metallicFactor":1.0,
			"roughnessFactor":1.0
		},
		"emissiveFactor":[0.0,
		0.0,
		0.0],
		"alphaMode":"OPAQUE",
		"doubleSided":false
	}]
}