<?xml version="1.0" encoding="utf-8"?>
<!-- Generator: Adobe Illustrator 22.1.0, SVG Export Plug-In . SVG Version: 6.00 Build 0)  -->
<svg version="1.1" id="Livello_1" xmlns="http://www.w3.org/2000/svg" xmlns:xlink="http://www.w3.org/1999/xlink" x="0px" y="0px"
	 viewBox="0 0 401.3 180" style="enable-background:new 0 0 401.3 180;" xml:space="preserve">
<style type="text/css">
	.st0{fill:#FFFFFF;}
</style>
<g>
	<g>
		<path class="st0" d="M72,106.9c-9.4,0-16.8-7.4-16.8-16.8v-0.1c0-9.7,7.3-16.9,17.1-16.9c5.3,0,9.3,1.6,12.8,5l0.7,0.7l-5.6,6.5
			l-0.8-0.7c-2.5-2.2-4.7-3.2-7.2-3.2c-4.5,0-7.9,3.7-7.9,8.6c0,5,3.4,8.8,7.9,8.8c3.1,0,5-1.2,7.4-3.3l0.7-0.6l5.7,5.7l-0.7,0.7
			C81.6,105.1,77.6,106.9,72,106.9z M72.3,75c-8.6,0-15.1,6.4-15.1,14.9V90c0,8.5,6.4,14.8,14.8,14.8c4.7,0,8-1.3,11.2-4.5l-3-3
			c-2.4,2-4.6,3.2-8.1,3.2c-5.7,0-9.9-4.6-9.9-10.7c0-6,4.4-10.7,9.9-10.7c2.8,0,5.2,1,7.8,3.1l3-3.5C80.1,76.1,76.8,75,72.3,75z"/>
		<path class="st0" d="M104.2,106.9c-9.9,0-17.3-7.2-17.3-16.8v-0.1c0-9.5,7.6-16.9,17.4-16.9c9.9,0,17.3,7.2,17.3,16.8
			C121.6,99.4,113.9,106.9,104.2,106.9z M104.2,75c-8.6,0-15.4,6.6-15.4,14.9V90c0,8.5,6.6,14.8,15.3,14.8c8.6,0,15.4-6.6,15.4-14.9
			C119.6,81.4,113,75,104.2,75z M104.2,100.6c-5.8,0-10.3-4.7-10.3-10.7c0-6.1,4.4-10.7,10.2-10.7c5.8,0,10.3,4.7,10.3,10.7V90
			C114.5,96.1,110.1,100.6,104.2,100.6z M104.2,81.2c-4.7,0-8.2,3.7-8.2,8.6c0,5,3.6,8.8,8.3,8.8c4.7,0,8.2-3.7,8.2-8.6v-0.1
			C112.5,85,108.9,81.2,104.2,81.2z"/>
		<path class="st0" d="M138.6,106.3h-13V73.5h13c10.1,0,17.4,6.9,17.4,16.3C156,99.4,148.7,106.3,138.6,106.3z M127.6,104.3h11
			c8.9,0,15.4-6.1,15.4-14.4c0-8.4-6.5-14.4-15.4-14.4h-11V104.3z M138.6,100.2h-6.2V79.6h6.2c6.1,0,10.3,4.2,10.3,10.3
			C148.9,96,144.7,100.2,138.6,100.2z M134.4,98.2h4.2c5,0,8.3-3.3,8.3-8.2c0-5-3.3-8.4-8.3-8.4h-4.2V98.2z"/>
		<path class="st0" d="M185.5,106.3H160V73.5h25.2v8h-16.5v4.2h14.5v8h-14.5v4.5h16.7V106.3z M162,104.3h21.5v-4h-16.7v-8.5h14.5v-4
			h-14.5v-8.2h16.5v-4H162V104.3z"/>
		<path class="st0" d="M189.3,86.3c0-0.6,0.4-1,1-1c0.6,0,1,0.4,1,1v7.3c0,0.6-0.4,1-1,1c-0.6,0-1-0.4-1-1V86.3z"/>
		<path class="st0" d="M193.6,86.3c0-0.6,0.4-1,1-1h0.2c0.5,0,0.8,0.2,1,0.6l3.9,5.1v-4.7c0-0.5,0.4-1,1-1s1,0.4,1,1v7.2
			c0,0.6-0.4,1-1,1h-0.1c-0.5,0-0.8-0.2-1-0.6l-4-5.3v4.9c0,0.5-0.4,1-1,1s-1-0.4-1-1V86.3z"/>
		<path class="st0" d="M209.9,87.2H208c-0.5,0-0.9-0.4-0.9-0.9c0-0.5,0.4-0.9,0.9-0.9h5.9c0.5,0,0.9,0.4,0.9,0.9
			c0,0.5-0.4,0.9-0.9,0.9h-1.9v6.3c0,0.6-0.4,1-1,1c-0.6,0-1-0.4-1-1V87.2z"/>
		<path class="st0" d="M216.2,86.3c0-0.6,0.4-1,1-1c0.6,0,1,0.4,1,1V89h3.7v-2.7c0-0.6,0.4-1,1-1c0.6,0,1,0.4,1,1v7.3
			c0,0.6-0.4,1-1,1c-0.6,0-1-0.4-1-1v-2.7h-3.7v2.7c0,0.6-0.4,1-1,1c-0.6,0-1-0.4-1-1V86.3z"/>
		<path class="st0" d="M226.1,93.5v-7.1c0-0.6,0.4-1,1-1h5c0.5,0,0.9,0.4,0.9,0.9c0,0.5-0.4,0.9-0.9,0.9h-4.1V89h3.5
			c0.5,0,0.9,0.4,0.9,0.9s-0.4,0.9-0.9,0.9h-3.5v1.9h4.1c0.5,0,0.9,0.4,0.9,0.9s-0.4,0.9-0.9,0.9h-5.1
			C226.5,94.5,226.1,94,226.1,93.5z"/>
		<path class="st0" d="M217.1,79.9 M224.5,100.2l-7.4,0v6.7h13.1c10.6,0,17.9-7.3,17.9-16.8v-0.1c0-9.5-7.3-16.7-17.9-16.7h-13.1
			v6.7h7.4h5.7c6,0,10.1,4.2,10.1,10.1v0.1c0,6-4.1,10-10.1,10H224.5 M225.3,80.6"/>
		<path class="st0" d="M265.8,81.9l-7.1,17.4l-3.1,7.5h-7.5L262.5,73h6.8l14.4,33.8h-7.7l-3.1-7.5L265.8,81.9z M265.8,81.9
			l-4.5,10.9 M270.2,92.8"/>
		<path class="st0" d="M281.8,79.9 M289.2,96.1 M281.8,79.9v-6.7h15.4c4.3,0,7.6,1.2,9.8,3.4c1.9,1.9,2.9,4.5,2.9,7.7v0.1
			c0,5.4-2.9,8.8-7.2,10.4l8.2,12h-8.6L295,96.1h-5.8v-6.5h7.5c3.6,0,5.7-1.9,5.7-4.8v-0.1c0-3.2-2.2-4.8-5.8-4.8h-7.3H281.8z"/>
		<path class="st0" d="M315.5,73.3h7.4v14.7l13.6-14.7h8.9l-13.7,14.3l14.3,19.3h-8.9l-10.4-14.3l-3.9,4v10.3h-7.4V73.3z"/>
	</g>
	<path class="st0" d="M147.9,117.4H56c-0.3,0-0.5-0.2-0.5-0.5s0.2-0.5,0.5-0.5h91.9c0.3,0,0.5,0.2,0.5,0.5S148.2,117.4,147.9,117.4z
		"/>
	<path class="st0" d="M345.6,63.6h-91.9c-0.3,0-0.5-0.2-0.5-0.5s0.2-0.5,0.5-0.5h91.9c0.3,0,0.5,0.2,0.5,0.5S345.9,63.6,345.6,63.6z
		"/>
</g>
</svg>
