<?xml version="1.0" encoding="utf-8"?>
<!-- Generator: Adobe Illustrator 22.1.0, SVG Export Plug-In . SVG Version: 6.00 Build 0)  -->
<svg version="1.1" id="Livello_1" xmlns="http://www.w3.org/2000/svg" xmlns:xlink="http://www.w3.org/1999/xlink" x="0px" y="0px"
	 viewBox="0 0 563 301.2" style="enable-background:new 0 0 563 301.2;" xml:space="preserve">
<style type="text/css">
	.st0{fill:#FFFFFF;}
</style>
<g id="Livello_1_1_">
</g>
<g id="Logo_definitivo">
	<g>
		<path class="st0" d="M189.2,156.4c-8.7-22.5-19.3-32.5-19.3-32.5s19.9,47.2,11.7,73.6s-43.5,26.6-71.8,18.4c0,0,70,24,83.9,1.2
			C206.1,196.9,191.7,162.8,189.2,156.4z"/>
		<path class="st0" d="M82.3,141.4c5.7-9.2,27.4-30.9,38.9-38.5c11.9-7.8,22.5-15.2,41-3.8c18.5,11.3,29.1,46.1,29.1,46.1
			s-16.8-91.6-57.9-66.5C92.9,103.3,81.7,142,81.7,142C81.9,141.8,82.1,141.6,82.3,141.4z"/>
		<path class="st0" d="M141.2,209.4c-24.2-2.9-76.8-15.4-77.7-43.2c-0.9-27.8,27.1-54.4,27.1-54.4l0,0l0,0c0,0-34.1,30.7-42.5,56.8
			c-8.4,26.4,31.5,38.8,59.9,41.5C133.2,212.5,141.2,209.4,141.2,209.4z"/>
		<path class="st0" d="M63.6,166.2c0.9,27.8,53.5,40.3,77.7,43.2c0,0-46.5-8-65.3-28.1c-20.8-22.3,5.4-60.4,14.7-69.5l0,0
			C90.7,111.7,62.7,138.3,63.6,166.2z"/>
		<path class="st0" d="M162.2,99.1c-18.5-11.3-29.1-4-41,3.8c-11.5,7.6-33.2,29.3-38.9,38.5c37.3-41.7,60.6-49.3,78.9-38
			c17.7,11,30.2,41.7,30.2,41.7S180.7,110.4,162.2,99.1z"/>
		<path class="st0" d="M181.6,197.5c8.2-26.4-11.7-73.6-11.7-73.6s18.2,48.5,7.8,72.5c-10.5,24-39.7,23.5-67.8,19.4
			C138.1,224.1,173.5,223.9,181.6,197.5z"/>
		<g>
			<path class="st0" d="M225.6,129.8c0-1.2,0.5-2.3,1.4-3.2c0.9-0.9,2.2-1.3,3.8-1.3s3,0.4,4,1.3s1.5,1.9,1.5,3.2s-0.5,2.3-1.5,3.1
				s-2.3,1.3-4,1.3c-1.6,0-2.9-0.4-3.8-1.3C226.1,132.1,225.6,131,225.6,129.8z M226.9,138.9h8.4v32.3h-8.4V138.9z"/>
			<path class="st0" d="M263.3,171.2v-18.4c0-2.6-0.4-4.5-1.1-5.7c-0.8-1.2-2-1.7-3.8-1.7c-1.6,0-2.9,0.5-4,1.4s-1.9,2.1-2.4,3.5
				v20.9h-8.4v-32.3h6.7l1,4.3h0.3c1-1.4,2.3-2.6,3.9-3.6c1.6-1,3.7-1.6,6.3-1.6c1.6,0,3,0.2,4.3,0.6c1.2,0.4,2.3,1.1,3.2,2.1
				c0.9,1,1.5,2.3,1.9,4s0.6,3.8,0.6,6.3v20.1L263.3,171.2L263.3,171.2z"/>
			<path class="st0" d="M275.4,138.9h4.5v-6.1l8.4-2.4v8.5h7.9v7.1h-7.9v12.4c0,2.2,0.2,3.8,0.7,4.8s1.3,1.5,2.6,1.5
				c0.9,0,1.6-0.1,2.2-0.3s1.3-0.4,2.1-0.8l1.5,6.5c-1.2,0.6-2.5,1-4.1,1.4s-3.1,0.6-4.7,0.6c-3,0-5.2-0.8-6.6-2.3s-2.1-4-2.1-7.5
				V146h-4.5V138.9z"/>
			<path class="st0" d="M326.8,168.4c-1.3,1-3,1.9-5.3,2.6c-2.2,0.7-4.6,1.1-7.1,1.1c-5.2,0-9-1.5-11.4-4.6c-2.4-3-3.6-7.2-3.6-12.5
				c0-5.7,1.4-10,4.1-12.8s6.5-4.3,11.4-4.3c1.6,0,3.2,0.2,4.8,0.6c1.6,0.4,2.9,1.1,4.1,2.1s2.2,2.3,2.9,4c0.7,1.7,1.1,3.8,1.1,6.3
				c0,0.9-0.1,1.9-0.2,2.9s-0.3,2.1-0.5,3.2h-19.4c0.1,2.7,0.8,4.8,2.1,6.1c1.3,1.4,3.3,2.1,6.2,2.1c1.8,0,3.3-0.3,4.7-0.8
				c1.4-0.5,2.5-1.1,3.2-1.6L326.8,168.4z M314.8,144.7c-2.2,0-3.8,0.7-4.9,2s-1.7,3.1-1.9,5.3h12c0.2-2.3-0.2-4.1-1.1-5.4
				C318.1,145.3,316.7,144.7,314.8,144.7z"/>
			<path class="st0" d="M351.6,146.8c-1.3-0.5-2.5-0.7-3.6-0.7c-1.5,0-2.8,0.4-3.8,1.2s-1.7,1.8-2,3.1v20.9h-8.4V139h6.5l1,4.3h0.3
				c0.7-1.6,1.7-2.8,3-3.7c1.2-0.9,2.7-1.3,4.4-1.3c1.1,0,2.4,0.2,3.8,0.7L351.6,146.8z"/>
			<path class="st0" d="M365.1,160.3c0,1.5,0.2,2.6,0.6,3.3s1,1,1.9,1c0.5,0,1,0,1.5-0.1s1.1-0.3,1.8-0.6l0.9,6.6
				c-0.7,0.3-1.7,0.7-3.2,1c-1.4,0.3-2.9,0.5-4.4,0.5c-2.5,0-4.3-0.6-5.6-1.7c-1.3-1.1-1.9-3-1.9-5.7V126h8.4L365.1,160.3
				L365.1,160.3z"/>
			<path class="st0" d="M373.9,155c0-5.5,1.3-9.7,4-12.6c2.7-3,6.4-4.4,11.2-4.4c2.6,0,4.8,0.4,6.7,1.2c1.9,0.8,3.5,2,4.7,3.5
				s2.2,3.3,2.8,5.4c0.6,2.1,0.9,4.4,0.9,7c0,5.5-1.3,9.7-4,12.6c-2.6,3-6.4,4.4-11.2,4.4c-2.6,0-4.8-0.4-6.7-1.2
				c-1.9-0.8-3.5-2-4.7-3.5c-1.3-1.5-2.2-3.3-2.8-5.4C374.2,159.9,373.9,157.6,373.9,155z M382.6,155c0,1.4,0.1,2.7,0.4,3.9
				s0.6,2.3,1.2,3.2c0.5,0.9,1.2,1.6,2,2.1s1.8,0.7,3,0.7c2.2,0,3.8-0.8,4.9-2.4c1.1-1.6,1.6-4.1,1.6-7.6c0-3-0.5-5.4-1.5-7.2
				s-2.7-2.7-5-2.7c-2.1,0-3.7,0.8-4.8,2.3C383.2,149,382.6,151.5,382.6,155z"/>
			<path class="st0" d="M437.5,171.2c0,4.7-1.3,8.2-3.8,10.4s-6.1,3.3-10.7,3.3c-3.1,0-5.5-0.2-7.3-0.6c-1.8-0.4-3.1-0.9-4-1.4
				l1.7-6.7c1,0.4,2.1,0.8,3.5,1.2c1.3,0.4,2.9,0.6,4.9,0.6c2.9,0,4.9-0.6,6-1.9c1.1-1.3,1.6-3,1.6-5.3v-2.1H429c-1.5,2-4.2,3-8,3
				c-4.2,0-7.3-1.3-9.3-3.9c-2-2.6-3.1-6.6-3.1-12.1c0-5.8,1.4-10.1,4.1-13.1c2.8-3,6.8-4.5,12-4.5c2.8,0,5.2,0.2,7.4,0.6
				c2.2,0.4,4,0.8,5.3,1.4v31.1H437.5z M423.3,165c1.6,0,2.9-0.4,3.8-1.1c0.9-0.7,1.6-1.8,2-3.3v-14.5c-1.3-0.6-3-0.8-5-0.8
				c-2.2,0-3.8,0.8-5,2.4c-1.2,1.6-1.8,4.2-1.8,7.7c0,3.1,0.5,5.5,1.6,7.2C419.9,164.2,421.4,165,423.3,165z"/>
			<path class="st0" d="M444.3,129.8c0-1.2,0.5-2.3,1.4-3.2c0.9-0.9,2.2-1.3,3.8-1.3c1.6,0,3,0.4,4,1.3s1.5,1.9,1.5,3.2
				s-0.5,2.3-1.5,3.1s-2.3,1.3-4,1.3c-1.6,0-2.9-0.4-3.8-1.3C444.8,132.1,444.3,131,444.3,129.8z M445.5,138.9h8.4v32.3h-8.4V138.9z
				"/>
			<path class="st0" d="M485.1,169.2c-1.3,0.9-2.9,1.7-4.7,2.2c-1.8,0.5-3.7,0.7-5.7,0.7c-2.6,0-4.8-0.4-6.6-1.2
				c-1.8-0.8-3.2-2-4.4-3.5c-1.1-1.5-1.9-3.3-2.4-5.4c-0.5-2.1-0.7-4.4-0.7-7c0-5.5,1.2-9.7,3.7-12.6c2.5-3,6-4.4,10.7-4.4
				c2.4,0,4.3,0.2,5.7,0.6c1.4,0.4,2.7,0.9,3.9,1.5l-2,6.8c-1-0.5-2-0.8-2.9-1.1c-1-0.3-2.1-0.4-3.3-0.4c-2.3,0-4.1,0.8-5.3,2.3
				c-1.2,1.5-1.8,4-1.8,7.3c0,1.4,0.2,2.6,0.5,3.8s0.8,2.2,1.4,3c0.6,0.9,1.4,1.5,2.4,2s2.1,0.7,3.4,0.7c1.4,0,2.6-0.2,3.6-0.5
				c1-0.4,1.9-0.8,2.6-1.3L485.1,169.2z"/>
			<path class="st0" d="M490,140.8c1.7-0.8,3.8-1.4,6.1-1.8c2.4-0.5,4.8-0.7,7.4-0.7c2.2,0,4.1,0.3,5.6,0.8s2.7,1.3,3.6,2.3
				c0.9,1,1.5,2.2,1.9,3.6c0.4,1.4,0.5,2.9,0.5,4.7c0,1.9-0.1,3.8-0.2,5.7c-0.1,1.9-0.2,3.8-0.2,5.7s0,3.7,0.2,5.4
				c0.1,1.7,0.5,3.4,1,4.9H509l-1.4-4.5h-0.3c-0.9,1.3-2.1,2.5-3.6,3.5s-3.5,1.5-5.9,1.5c-1.5,0-2.9-0.2-4.1-0.7s-2.2-1.1-3.1-1.9
				c-0.9-0.8-1.5-1.8-2-3c-0.5-1.1-0.7-2.4-0.7-3.8c0-2,0.4-3.7,1.3-5c0.9-1.4,2.2-2.5,3.8-3.3c1.7-0.8,3.6-1.4,5.9-1.7
				s4.9-0.4,7.7-0.3c0.3-2.4,0.1-4.1-0.5-5.2c-0.6-1.1-2.1-1.6-4.3-1.6c-1.7,0-3.5,0.2-5.3,0.5c-1.9,0.3-3.4,0.8-4.6,1.4L490,140.8z
				 M500.6,164.8c1.7,0,3-0.4,4-1.1c1-0.8,1.7-1.6,2.2-2.4V157c-1.3-0.1-2.6-0.2-3.8-0.1c-1.2,0.1-2.3,0.3-3.3,0.6
				c-0.9,0.3-1.7,0.7-2.3,1.3c-0.6,0.6-0.8,1.3-0.8,2.1c0,1.2,0.4,2.1,1.1,2.8C498.4,164.5,499.4,164.8,500.6,164.8z"/>
		</g>
	</g>
</g>
</svg>
