<?xml version="1.0" encoding="utf-8"?>
<!-- Generator: Adobe Illustrator 22.1.0, SVG Export Plug-In . SVG Version: 6.00 Build 0)  -->
<svg version="1.1" id="Livello_1" xmlns="http://www.w3.org/2000/svg" xmlns:xlink="http://www.w3.org/1999/xlink" x="0px" y="0px"
	 viewBox="0 0 204.6 230.2" style="enable-background:new 0 0 204.6 230.2;" xml:space="preserve">
<style type="text/css">
	.st0{fill:#FFFFFF;}
</style>
<path class="st0" d="M87.9,14h28.8c2,0,3.6-1.2,3.6-2.7V2.7c0-1.5-1.6-2.7-3.6-2.7H87.9c-2,0-3.6,1.2-3.6,2.7v8.6
	C84.3,12.8,85.9,14,87.9,14z M176.8,42.2l13.5,14c1,1.1,2.7,1.1,3.7,0l6-6.2c1-1.1,1-2.8,0-3.9l-14.7-15.3c-1-1.1-2.7-1.1-3.7,0
	l-6,6.2c-1,1.1-1,2.8,0,3.9L176.8,42.2z M102.3,25.6C45.8,25.6,0,71.4,0,127.9s45.8,102.3,102.3,102.3s102.3-45.8,102.3-102.3
	S158.8,25.6,102.3,25.6z M102.3,222.4c-52.2,0-94.5-42.3-94.5-94.5s42.3-94.5,94.5-94.5s94.5,42.3,94.5,94.5
	S154.5,222.4,102.3,222.4z M110.5,127.4c-0.6-3.2-3.4-5.7-6.9-5.7c-3.8,0-7,3.1-7,7c0,3.8,3.1,7,7,7c0.5,0,0.9,0,1.4-0.1
	c5.6,5.1,26.4,23.1,28.1,21.4C135,155,112.4,129.3,110.5,127.4L110.5,127.4L110.5,127.4z M41.6,71.6l10.9,10.9l4.4-4.4L46,67.2
	L41.6,71.6z M105.4,45.1h-6.2v22.8h6.2V45.1z M41.6,184.2l4.4,4.4l10.9-10.9l-4.4-4.4L41.6,184.2z M42.3,124.8H19.5v6.2h22.8V124.8z
	 M147.7,78.1l4.4,4.4L163,71.6l-4.4-4.4L147.7,78.1z M169.6,124.8v6.2h15.5v-6.2H169.6z M147.7,177.7l10.9,10.9l4.4-4.4l-10.9-10.9
	L147.7,177.7z M99.2,210.7h6.2v-15.5h-6.2V210.7z"/>
</svg>
