<svg width="197" height="37" viewBox="0 0 197 37" fill="none" xmlns="http://www.w3.org/2000/svg">
<g clip-path="url(#clip0_7_157)">
<path d="M11.5549 8.3507C10.2124 8.31446 8.87647 8.5502 7.62777 9.04369C6.37907 9.53717 5.24353 10.2782 4.28972 11.2219C3.33592 12.1657 2.58364 13.2926 2.07833 14.5346C1.57302 15.7766 1.32515 17.108 1.34969 18.4483C1.31941 19.7724 1.55786 21.0888 2.05067 22.3184C2.54349 23.5481 3.28049 24.6654 4.2173 25.6033C5.15411 26.5411 6.27136 27.2801 7.5018 27.7756C8.73223 28.2712 10.0504 28.5131 11.3769 28.4868C12.7887 28.5508 14.1979 28.3132 15.5102 27.7898C16.8225 27.2663 18.0077 26.4691 18.9864 25.4515L16.9839 23.4231C15.5197 24.8352 13.5613 25.6214 11.5253 25.6144C10.6026 25.6 9.69238 25.3994 8.84945 25.0245C8.00652 24.6497 7.24831 24.1084 6.6205 23.4334C5.99269 22.7583 5.50826 21.9634 5.19639 21.0965C4.88453 20.2296 4.75167 19.3086 4.80583 18.3891C4.77016 17.4769 4.91623 16.5666 5.23558 15.7111C5.55492 14.8556 6.04118 14.0719 6.66619 13.4053C7.29119 12.7388 8.04251 12.2027 8.87661 11.8281C9.7107 11.4535 10.611 11.2478 11.5253 11.223C13.4792 11.2567 15.3529 12.0047 16.7911 13.3255L18.8381 10.9417C17.854 10.0536 16.7043 9.36771 15.4547 8.92314C14.205 8.47857 12.8799 8.28405 11.5549 8.3507ZM11.3769 29.8933C9.87651 29.9072 8.38839 29.622 6.99982 29.0544C5.61126 28.4867 4.35019 27.6481 3.29056 26.5877C2.23092 25.5272 1.39404 24.2663 0.828976 22.8788C0.263911 21.4913 -0.0179667 20.0052 -0.000132918 18.5076C-0.0368771 16.9843 0.237116 15.4694 0.805189 14.0552C1.37326 12.6409 2.22355 11.3567 3.30436 10.2806C4.38517 9.20456 5.67392 8.35914 7.09228 7.79575C8.51063 7.23236 10.029 6.96277 11.5549 7.00336C13.1608 6.92732 14.7648 7.18701 16.2642 7.76578C17.7636 8.34455 19.1253 9.22963 20.262 10.3643L20.707 10.8085L16.9246 15.1762L16.4054 14.8061C15.7781 14.1339 15.0242 13.5918 14.1869 13.2107C13.3495 12.8296 12.445 12.6171 11.5253 12.5852C10.7856 12.5978 10.0562 12.7598 9.38111 13.0617C8.70598 13.3635 8.09916 13.7988 7.59729 14.3412C7.09542 14.8837 6.70892 15.5221 6.46114 16.2178C6.21336 16.9135 6.10944 17.6522 6.15565 18.3891C6.09909 19.1342 6.19501 19.883 6.43756 20.5899C6.68012 21.2968 7.06424 21.947 7.56656 22.5011C8.06888 23.0551 8.67888 23.5013 9.35944 23.8125C10.04 24.1238 10.7769 24.2935 11.5253 24.3115C12.4743 24.3069 13.4119 24.1043 14.2778 23.7167C15.1438 23.3292 15.919 22.7652 16.5537 22.061L17.0284 21.6168L20.8702 25.4811L20.4252 25.9549C19.3116 27.2492 17.9194 28.2757 16.3526 28.9576C14.7858 29.6396 13.0849 29.9595 11.3769 29.8933Z" fill="white"/>
<path d="M33.1374 12.5851C32.3833 12.5824 31.6365 12.7323 30.9422 13.0259C30.2478 13.3195 29.6203 13.7506 29.0976 14.2931C28.5749 14.8356 28.1678 15.4783 27.901 16.1823C27.6342 16.8863 27.5132 17.637 27.5453 18.389C27.5071 19.1531 27.625 19.917 27.8918 20.6342C28.1587 21.3514 28.5689 22.0069 29.0975 22.5609C29.6262 23.1149 30.2622 23.5558 30.9669 23.8567C31.6716 24.1576 32.4303 24.3123 33.1967 24.3113C33.9496 24.312 34.6947 24.1606 35.3874 23.8661C36.08 23.5716 36.7057 23.1403 37.2268 22.598C37.7479 22.0557 38.1537 21.4137 38.4196 20.7107C38.6855 20.0076 38.8061 19.2582 38.774 18.5074C38.8143 17.744 38.6984 16.9805 38.4332 16.2633C38.1681 15.5461 37.7593 14.8904 37.2318 14.3362C36.7043 13.782 36.0692 13.3409 35.3652 13.0398C34.6613 12.7387 33.9033 12.584 33.1374 12.5851ZM33.1374 25.6735C32.1994 25.6679 31.272 25.4755 30.4096 25.1074C29.5471 24.7394 28.7669 24.2032 28.1148 23.5302C27.4627 22.8572 26.9518 22.061 26.612 21.1884C26.2722 20.3157 26.1104 19.3841 26.1361 18.4482C26.094 17.5131 26.2424 16.5792 26.5726 15.7031C26.9027 14.827 27.4076 14.0269 28.0566 13.3514C28.7057 12.6758 29.4855 12.1388 30.3486 11.773C31.2118 11.4071 32.1403 11.22 33.0781 11.2229C34.0148 11.2304 34.9406 11.4243 35.8013 11.7932C36.6621 12.1622 37.4405 12.6987 38.091 13.3715C38.7416 14.0442 39.2512 14.8397 39.59 15.7114C39.9289 16.5831 40.0902 17.5135 40.0645 18.4482C40.1026 19.3782 39.9514 20.3063 39.62 21.1763C39.2886 22.0463 38.784 22.8402 38.1365 23.5101C37.489 24.1799 36.7121 24.7117 35.8529 25.0734C34.9937 25.435 34.0699 25.619 33.1374 25.6143M33.1374 8.29133C31.7887 8.26383 30.4481 8.50427 29.1933 8.99867C27.9386 9.49307 26.7949 10.2315 25.8287 11.1712C24.8625 12.1108 24.0931 13.2328 23.5653 14.4719C23.0375 15.711 22.7617 17.0425 22.7542 18.389C22.7451 19.7375 23.01 21.0738 23.5328 22.3173C24.0556 23.5607 24.8255 24.6855 25.7959 25.6237C26.7663 26.5619 27.9172 27.2941 29.179 27.776C30.4408 28.2578 31.7874 28.4794 33.1374 28.4274C34.4861 28.4549 35.8268 28.2144 37.0815 27.7201C38.3362 27.2257 39.48 26.4872 40.4461 25.5476C41.4123 24.6079 42.1817 23.4859 42.7095 22.2468C43.2374 21.0077 43.5131 19.6762 43.5207 18.3298C43.5378 16.9763 43.2789 15.6335 42.7597 14.3831C42.2405 13.1327 41.4718 12.0008 40.5006 11.0562C39.5293 10.1116 38.3756 9.37416 37.1098 8.88867C35.844 8.40317 34.4925 8.17979 33.1374 8.23211M33.1374 29.7747C31.6084 29.8307 30.0838 29.5771 28.6556 29.0291C27.2274 28.4811 25.9251 27.6501 24.8274 26.5862C23.7296 25.5223 22.8591 24.2475 22.2682 22.8387C21.6774 21.4299 21.3785 19.9162 21.3895 18.389C21.3967 16.8541 21.7116 15.3362 22.3156 13.9247C22.9195 12.5132 23.8003 11.2366 24.9062 10.17C26.012 9.10351 27.3204 8.26864 28.7544 7.7146C30.1885 7.16056 31.7191 6.89855 33.2561 6.944C34.7844 6.88792 36.3083 7.14162 37.7357 7.68978C39.1632 8.23794 40.4644 9.06918 41.561 10.1333C42.6576 11.1974 43.5268 12.4724 44.116 13.8811C44.7052 15.2899 45.0022 16.8032 44.9892 18.3298C44.9896 19.8632 44.6828 21.3812 44.087 22.7947C43.4912 24.2081 42.6183 25.4883 41.5196 26.5601C40.4209 27.632 39.1187 28.4737 37.6894 29.0359C36.2601 29.5982 34.7326 29.8695 33.1967 29.834" fill="white"/>
<path d="M53.5924 24.0448H56.4701C57.2135 24.0918 57.9585 23.9813 58.6562 23.7204C59.3538 23.4596 59.9882 23.0543 60.5177 22.5313C61.0473 22.0083 61.46 21.3794 61.7288 20.6859C61.9975 19.9924 62.1162 19.25 62.077 18.5074C62.1264 17.757 62.0158 17.0046 61.7523 16.3C61.4888 15.5955 61.0785 14.9547 60.5486 14.4202C60.0186 13.8856 59.381 13.4693 58.678 13.1989C57.9749 12.9285 57.2224 12.8101 56.4701 12.8516H53.5924V24.0448ZM56.4701 25.407H52.2426V11.4894H56.4701C57.3956 11.4494 58.3193 11.6022 59.1825 11.9379C60.0456 12.2737 60.8293 12.7851 61.4837 13.4397C62.1381 14.0942 62.6488 14.8775 62.9833 15.7398C63.3178 16.6021 63.4689 17.5245 63.4268 18.4482C63.4712 19.3725 63.3217 20.2959 62.988 21.1592C62.6542 22.0225 62.1436 22.8068 61.4888 23.4618C60.8339 24.1168 60.0493 24.6282 59.1851 24.9631C58.3209 25.2981 57.3962 25.4493 56.4701 25.407ZM48.9496 28.1313H56.3662C62.3885 28.1313 66.7495 24.03 66.7495 18.389C66.7495 12.7479 62.3737 8.64668 56.3662 8.64668H48.9496V28.1313ZM56.3662 29.4786H47.4663V7.40298H56.3662C63.2785 7.40298 68.2328 11.9928 68.2328 18.389C68.2328 24.7851 63.2785 29.6119 56.4701 29.6119" fill="white"/>
<path d="M72.3119 28.1313H86.8337V25.4662H75.5159V19.7363H85.3504V17.012H75.5159V11.4302H86.6853V8.70591H72.3119V28.1313ZM88.1983 29.6119H70.9473V7.40298H88.05V12.7923H76.8657V15.6647H86.7002V21.0837H76.8657V24.0448H88.1983V29.6119Z" fill="white"/>
<path d="M90.809 15.9904C90.809 15.9017 90.8267 15.8138 90.8612 15.732C90.8956 15.6502 90.9461 15.576 91.0097 15.514C91.0733 15.4519 91.1486 15.4031 91.2313 15.3705C91.314 15.3379 91.4024 15.3222 91.4913 15.3241C91.6697 15.3241 91.8411 15.3938 91.9686 15.5184C92.0962 15.6429 92.1697 15.8124 92.1736 15.9904V20.906C92.1697 21.084 92.0962 21.2535 91.9686 21.378C91.8411 21.5026 91.6697 21.5723 91.4913 21.5722C91.4024 21.5742 91.314 21.5584 91.2313 21.5258C91.1486 21.4932 91.0733 21.4445 91.0097 21.3824C90.9461 21.3203 90.8956 21.2462 90.8612 21.1644C90.8267 21.0826 90.809 20.9947 90.809 20.906V15.9904Z" fill="white"/>
<path d="M93.7015 16.02C93.7015 15.8394 93.7733 15.6662 93.9013 15.5384C94.0293 15.4107 94.2028 15.339 94.3838 15.339H94.5321C94.673 15.3398 94.8113 15.3771 94.9335 15.4472C95.0556 15.5172 95.1575 15.6177 95.2293 15.7387L97.8993 19.1589V15.9904C97.9233 15.8289 98.0047 15.6814 98.1286 15.5748C98.2525 15.4682 98.4106 15.4095 98.5742 15.4095C98.7378 15.4095 98.8959 15.4682 99.0198 15.5748C99.1436 15.6814 99.225 15.8289 99.2491 15.9904V20.8764C99.2491 21.057 99.1772 21.2302 99.0492 21.358C98.9213 21.4857 98.7477 21.5574 98.5667 21.5574C98.4253 21.5596 98.2858 21.5236 98.1631 21.4533C98.0404 21.3829 97.939 21.2808 97.8696 21.1577L95.0513 17.6191V20.906C95.0513 21.0827 94.981 21.2522 94.8558 21.3771C94.7306 21.5021 94.5608 21.5723 94.3838 21.5723C94.2054 21.5723 94.034 21.5026 93.9065 21.378C93.7789 21.2535 93.7053 21.084 93.7015 20.906V16.02Z" fill="white"/>
<path d="M104.737 16.6271H103.432C103.281 16.6039 103.144 16.5278 103.045 16.4123C102.946 16.2969 102.891 16.1499 102.891 15.9978C102.891 15.8457 102.946 15.6987 103.045 15.5833C103.144 15.4678 103.281 15.3917 103.432 15.3685H107.393C107.483 15.3546 107.576 15.3604 107.665 15.3856C107.753 15.4108 107.835 15.4548 107.905 15.5146C107.975 15.5744 108.031 15.6485 108.069 15.7319C108.107 15.8153 108.127 15.906 108.127 15.9978C108.127 16.0896 108.107 16.1803 108.069 16.2637C108.031 16.3471 107.975 16.4212 107.905 16.481C107.835 16.5408 107.753 16.5848 107.665 16.61C107.576 16.6352 107.483 16.641 107.393 16.6271H106.102V20.906C106.098 21.084 106.025 21.2535 105.897 21.378C105.769 21.5026 105.598 21.5723 105.42 21.5722C105.331 21.5742 105.242 21.5584 105.16 21.5258C105.077 21.4932 105.002 21.4445 104.938 21.3824C104.875 21.3203 104.824 21.2462 104.79 21.1644C104.755 21.0826 104.737 20.9947 104.737 20.906V16.6271Z" fill="white"/>
<path d="M109.009 15.9904C109.033 15.8289 109.115 15.6814 109.239 15.5748C109.363 15.4681 109.521 15.4095 109.684 15.4095C109.848 15.4095 110.006 15.4681 110.13 15.5748C110.254 15.6814 110.335 15.8289 110.359 15.9904V17.7671H112.866V15.9904C112.89 15.8289 112.971 15.6814 113.095 15.5748C113.219 15.4681 113.377 15.4095 113.541 15.4095C113.704 15.4095 113.863 15.4681 113.986 15.5748C114.11 15.6814 114.192 15.8289 114.216 15.9904V20.906C114.192 21.0675 114.11 21.215 113.986 21.3216C113.863 21.4282 113.704 21.4869 113.541 21.4869C113.377 21.4869 113.219 21.4282 113.095 21.3216C112.971 21.215 112.89 21.0675 112.866 20.906V19.0552H110.359V20.906C110.335 21.0675 110.254 21.215 110.13 21.3216C110.006 21.4282 109.848 21.4869 109.684 21.4869C109.521 21.4869 109.363 21.4282 109.239 21.3216C109.115 21.215 109.033 21.0675 109.009 20.906V15.9904Z" fill="white"/>
<path d="M115.699 20.8468V16.0496C115.699 15.9602 115.717 15.8716 115.751 15.789C115.785 15.7064 115.836 15.6313 115.899 15.568C115.962 15.5048 116.038 15.4546 116.12 15.4204C116.203 15.3862 116.292 15.3686 116.381 15.3686H119.793C119.954 15.3686 120.109 15.4325 120.223 15.5464C120.337 15.6602 120.401 15.8146 120.401 15.9756C120.401 16.1366 120.337 16.291 120.223 16.4048C120.109 16.5187 119.954 16.5826 119.793 16.5826H117.049V17.7671H119.393C119.479 17.7535 119.568 17.7587 119.653 17.7826C119.737 17.8065 119.816 17.8483 119.882 17.9053C119.949 17.9623 120.003 18.0331 120.04 18.1127C120.076 18.1924 120.095 18.279 120.095 18.3668C120.095 18.4545 120.076 18.5411 120.04 18.6208C120.003 18.7005 119.949 18.7712 119.882 18.8282C119.816 18.8852 119.737 18.9271 119.653 18.9509C119.568 18.9748 119.479 18.9801 119.393 18.9664H117.049V20.2693H119.838C119.924 20.2557 120.013 20.2609 120.098 20.2848C120.182 20.3087 120.261 20.3505 120.327 20.4075C120.394 20.4645 120.448 20.5353 120.485 20.6149C120.521 20.6946 120.54 20.7812 120.54 20.869C120.54 20.9567 120.521 21.0433 120.485 21.123C120.448 21.2027 120.394 21.2734 120.327 21.3304C120.261 21.3874 120.182 21.4293 120.098 21.4531C120.013 21.477 119.924 21.4823 119.838 21.4686H116.381C116.291 21.4706 116.202 21.4544 116.118 21.4209C116.034 21.3874 115.958 21.3373 115.894 21.2736C115.831 21.21 115.78 21.1341 115.747 21.0505C115.713 20.967 115.697 20.8775 115.699 20.7875" fill="white"/>
<path d="M114.616 25.3774H109.603V29.8191H118.503C125.652 29.8191 130.592 24.8591 130.592 18.463C130.592 12.0816 125.652 7.18088 118.503 7.18088H109.603V11.6227H118.503C119.416 11.576 120.328 11.7209 121.182 12.048C122.035 12.3751 122.81 12.8771 123.457 13.5216C124.104 14.1661 124.609 14.9388 124.938 15.7899C125.268 16.641 125.415 17.5516 125.37 18.463V18.537C125.414 19.4453 125.265 20.3525 124.934 21.1996C124.603 22.0468 124.097 22.8151 123.45 23.4545C122.802 24.094 122.027 24.5904 121.175 24.9114C120.322 25.2325 119.412 25.3711 118.503 25.3181L114.616 25.3774Z" fill="white"/>
<path d="M142.592 13.0144L139.625 20.4174L142.592 13.0144ZM142.592 13.0144L137.786 24.8591L135.709 29.9524H130.607L140.352 7.01801H144.965L154.71 29.8784H149.474L147.398 24.7851L142.592 13.0144Z" fill="white"/>
<path d="M153.479 11.6819V7.24011H163.863C165.075 7.14678 166.295 7.29649 167.449 7.68044C168.603 8.06438 169.668 8.67481 170.582 9.4758C171.238 10.169 171.748 10.9855 172.085 11.8777C172.421 12.77 172.576 13.7201 172.54 14.6727C172.623 16.2343 172.185 17.7794 171.294 19.0656C170.402 20.3518 169.109 21.3063 167.615 21.7795L173.178 29.8784H167.245L162.379 22.6235H158.434V18.1817H163.507C165.954 18.1817 167.348 16.8788 167.348 14.9688V14.8948C167.348 12.7627 165.865 11.6523 163.418 11.6523H153.435L153.479 11.6819Z" fill="white"/>
<path d="M176.293 7.18088H181.292V17.1008L190.533 7.18088H196.57L187.314 16.8047L197 29.8784H190.978L183.932 20.2101L181.292 22.9344V29.8784H176.293V7.18088Z" fill="white"/>
<path d="M62.7445 37.0148H0.504326C0.413844 37.0148 0.327068 36.9789 0.263087 36.9151C0.199106 36.8512 0.163162 36.7646 0.163162 36.6743C0.163162 36.584 0.199106 36.4973 0.263087 36.4335C0.327068 36.3696 0.413844 36.3337 0.504326 36.3337H62.8039C62.8943 36.3337 62.9811 36.3696 63.0451 36.4335C63.1091 36.4973 63.145 36.584 63.145 36.6743C63.145 36.7646 63.1091 36.8512 63.0451 36.9151C62.9811 36.9789 62.8943 37.0148 62.8039 37.0148" fill="white"/>
<path d="M196.659 0.681084H134.359C134.27 0.677441 134.185 0.640394 134.122 0.577303C134.059 0.514213 134.022 0.429697 134.018 0.340548C134.018 0.291832 134.028 0.243594 134.048 0.199091C134.067 0.154588 134.097 0.114856 134.133 0.0825766C134.17 0.0502977 134.213 0.0262238 134.26 0.0119804C134.306 -0.0022631 134.355 -0.0063445 134.404 1.17326e-05H196.703C196.794 1.17326e-05 196.881 0.0358895 196.945 0.0997525C197.009 0.163615 197.044 0.250232 197.044 0.340548C197.041 0.429697 197.004 0.514213 196.941 0.577303C196.877 0.640394 196.793 0.677441 196.703 0.681084" fill="white"/>
</g>
<defs>
<clipPath id="clip0_7_157">
<rect width="197" height="37" fill="white"/>
</clipPath>
</defs>
</svg>
